<?xml version="1.0" encoding="UTF-8"?>
<svg version="1.1" viewBox="0 0 866.81 443.07" xmlns="http://www.w3.org/2000/svg">
<path d="m711.47 378.32h-536.05c-4.9805 0-9.04 4.0498-9.04 9.0303 0 4.9898 4.0596 9.0396 9.04 9.0396h536.05c4.9795 0 9.0303-4.0498 9.0303-9.0396 0-4.9805-4.0508-9.0303-9.0303-9.0303z" fill="#e6e6e6"/>
<path d="m592.51 425h-298.14c-4.98 0-9.0298 4.0498-9.0298 9.0298s4.0498 9.04 9.0298 9.04h298.14c4.98 0 9.04-4.0601 9.04-9.04s-4.0601-9.0298-9.04-9.0298z" fill="#e6e6e6"/>
<path d="m581.64 273.53-2.5865 13.418-6.4193 33.328h-128.96c1.007-7.4699 2.3837-18.222 3.8544-29.829 0.14496-1.1592 0.29708-2.3257 0.44195-3.4994 3.6879-29.177 7.7234-62.193 7.7234-62.193l16.954 2.0577 32.893 3.9849 13.404 1.6229 35.893 4.3544c17.896 2.1663 30.205 19.048 26.8 36.755z" fill="#f2f2f2"/>
<polygon points="467.45 95.766 497.87 138.78 444.81 140.37 439.12 99.942" fill="#a0616a"/>
<polygon points="467.45 95.766 497.87 138.78 444.81 140.37 439.12 99.942" opacity=".1"/>
<path d="m317.45 184.9c-3.903-11.259-12.876-18.372-20.041-15.887-7.165 2.4851-9.8076 13.625-5.9017 24.888 1.4985 4.5204 4.0578 8.6161 7.4637 11.945l17.14 47.497 22.117-8.5182-19.245-45.919c0.61482-4.724 0.0891-9.5265-1.5331-14.006z" fill="#a0616a"/>
<path d="m523.35 162.98-0.0417 43.841-4.079 16.193-8.39 33.306-6.1077 30.633-4.55 22.822-1.6229 8.1509c-1.2245 0.81871-2.4417 1.6012-3.6589 2.3547h-105.98c-6.0208-3.6154-9.3898-6.4265-9.3898-6.4265s1.6664-1.565 3.5719-4.0791c3.2169-4.2457 7.1076-11.201 4.7239-17.845-0.49992-1.3911-0.63033-3.0865-0.47821-4.9775 0.97088-12.476 14.056-33.574 14.056-33.574l-2.7097-31.314-1.1882-13.722 8.3777-66.91 27.307-15.874 4.7145-0.45614 46.536-2.5141 19.234 1.1084 0.87664 0.23915 18.794 39.045z" fill="#ccc"/>
<polygon points="507.75 309.11 524.83 307.95 525.12 314.24 525.36 319.06 525.41 320.28 502.23 320.28 501.21 309.77 501.19 309.56" fill="#ffb6b6"/>
<path d="m531.12 173.58 9.7393 57.143-7.948 56.23-1.2389 8.7522-2.1881 15.454-0.67376 4.7529 0.0218 0.51438 0.16663 3.8545h-27.532l-1.0144-10.506-0.0868-0.94192-2.0722-21.518-0.0362-0.36226-4.3978-45.63 8.6218-32.98 0.63767-2.4272v-7e-3l3.7512-56.469-2.9054-25.663-0.0289-0.23915c0.0579 0.0363 0.1087 0.0725 0.16663 0.1087 0.15221 0.0942 0.30433 0.18838 0.4492 0.28983 16.925 10.737 27.01 29.575 26.568 49.644z" fill="#ccc"/>
<path d="m415.75 152.38-10.587-10.951s-22.664 10.218-23.794 15.886-41.146 88.926-41.146 88.926l-17.41-46.499-22.662 15.13s18.184 72.192 35.19 75.581 74.002-85.446 74.002-85.446l6.4084-52.628z" fill="#ccc"/>
<path d="m845.64 286.45h-824.48c-11.67 0-21.16 9.5-21.16 21.17s9.4902 21.16 21.16 21.16h824.48c11.67 0 21.17-9.4898 21.17-21.16s-9.5-21.17-21.17-21.17z" fill="#e6e6e6"/>
<path d="m518.52 221.94-1.6029 74.802c-0.15517 7.2411-6.0696 13.03-13.312 13.03h-137.6c-7.0715 0-12.91-5.5276-13.296-12.589l-4.0893-74.802c-0.41702-7.6281 5.656-14.042 13.296-14.042h143.29c7.4656 0 13.472 6.1368 13.312 13.601z" fill="#3f3d56"/>
<polygon points="235.07 81.275 268.85 67.057 283.34 96.762 247.84 111.25" fill="#ffb6b6"/>
<polygon points="235.07 81.275 268.85 67.057 283.34 96.762 247.84 111.25" opacity=".1"/>
<path d="m239.87 69.955 33.328 38.4s-23.185 73.177-46.369 79.698-65.932 38.4-65.932 38.4l-53.615-34.777 26.083-38.4s63.034-86.218 79.698-86.218c16.664 0 26.807 2.8981 26.807 2.8981z" fill="#003c56"/>
<path d="m194.84 320.28h-77.582l-4.905-6.557-20.026-26.771-4.608-6.1584s-17.389-31.879-13.766-60.86 41.298-35.502 41.298-35.502h1.5505l46.123 40.53-2.7532 37.719 14.606 24.272z" fill="#2f2e41"/>
<polygon points="112.36 320.28 112.36 289.49 133.15 320.28" fill="#2f2e41"/>
<circle cx="296.38" cy="66.41" r="32.922" fill="#ffb6b6"/>
<polygon points="212.34 190.23 207.37 146.75 241.32 152.55 244.94 191.68 269.58 290.93 248.3 298.39" fill="#ffb6b6"/>
<path d="m231.52 221.94-1.6029 74.802c-0.15517 7.2411-6.0696 13.03-13.312 13.03h-137.6c-7.0715 0-12.91-5.5276-13.296-12.589l-4.0893-74.802c-0.41702-7.6281 5.656-14.042 13.296-14.042h143.29c7.4656 0 13.472 6.1368 13.312 13.601z" fill="#3f3d56"/>
<ellipse cx="273.5" cy="298.78" rx="26" ry="11.5" fill="#ffb6b6"/>
<path d="m190.24 158.53 14.853-79.158s41.298-5.7962 42.747 7.9698-1.0354 81.042-1.0354 81.042l-56.564-9.8533z" fill="#003c56"/>
<path d="m283.1 71.586s20.365-7.2684 28.956-11.179c8.5906-3.9107 25.657 23.366 26.037 8.9604s-5.5176-20.447-5.5176-20.447-1.4726-31.515-33.223-27.575c0 0 6.9838-15.767-15.941-18.205-22.925-2.4381-58.589 52.921-55.395 61.194s7.023 15.113-2.0389 23.959-26.03 58.769-13.12 72.203 13.758 19.264 4.9119 27.621-29.754 26.53-7.1472 29.685-2.0683 0.79851 14.786-14.026c16.854-14.825 41.447-14.219 32.265-38.005-9.1828-23.785 6.7711-57.869 4.7748-63.04-1.9963-5.1707 4.4726-38.005 4.4726-38.005s15.055-2.2119 16.181 6.8597z" fill="#2f2e41"/>
<circle cx="451.19" cy="75.499" r="35.838" fill="#a0616a"/>
<path d="m454.05 27.317c-1.037 0.60534-2.426-0.31053-2.7586-1.4643-0.33251-1.1538 0.0548-2.3788 0.43892-3.5165l1.9336-5.7272c1.3714-4.0618 2.8269-8.2656 5.7969-11.357 4.4828-4.6662 11.607-5.8533 18.02-4.9933 8.2359 1.1044 16.362 5.564 20.191 12.939 3.8294 7.3746 2.1991 17.665-4.7205 22.266 9.8619 11.303 13.3 23.901 12.757 38.892s-16.879 28.788-27.533 39.348c-2.3791-1.4422-4.542-8.201-3.2337-10.656 1.3083-2.4553-0.5662-5.2999 1.0541-7.5615s2.9759 1.3395 1.3378-0.90922c-1.0337-1.419 3.0007-4.6835 1.4642-5.5328-7.4316-4.1079-9.9033-13.371-14.571-20.465-5.6299-8.5561-15.265-14.35-25.462-15.312-5.6172-0.52953-11.55 0.42955-16.154 3.6906-4.6042 3.2611-7.5849 9.0885-6.5172 14.629-2.7651-2.8076-4.1415-6.922-3.6223-10.828 0.51914-3.9062 2.9224-7.5184 6.3248-9.5063-2.0688-6.8414-0.29652-14.711 4.5053-20.005s24.28-4.3924 31.291-2.9991l-0.54217-0.93008z" fill="#2f2e41"/>
<path d="m455.14 53.475c9.2849 1.0023 15.989 9.0451 21.65 16.473 3.2628 4.281 6.6806 9.0087 6.5987 14.391-0.0828 5.4414-3.721 10.109-5.4597 15.265-2.842 8.4289-0.0721 18.457 6.6931 24.233-6.6848 1.2685-13.911-3.7437-15.065-10.449-1.3434-7.806 4.5739-15.34 3.8731-23.23-0.61741-6.9509-6.0951-12.301-10.752-17.498-4.6568-5.1972-9.0304-12.094-6.888-18.735l-0.64983-0.44975z" fill="#2f2e41"/>
<path d="m828.33 244.95-2.7154 21.622-6.7391 53.704h-135.38c1.0572-12.037 2.5025-29.362 4.0465-48.065 0.15218-1.8679 0.31188-3.7476 0.46397-5.6389 3.8716-47.014 8.1082-100.22 8.1082-100.22l17.799 3.3157 34.532 6.4211 14.071 2.6151 37.681 7.0166c18.787 3.4907 31.71 30.693 28.135 59.226z" fill="#f2f2f2"/>
<polygon points="725.93 79.358 742.58 108.49 710.58 131.17 696.93 95.358" fill="#ffb6b6"/>
<circle cx="704.74" cy="65.675" r="41.244" fill="#ffb6b6"/>
<path d="m701.77 74.896c-3.2749-4.9842-1.9895-7.5911-4.7313-9.4228-5e-5 -5e-5 -1.1033-0.7371-8.9994-1.1573-1.7678-12.724-3.9747-14.267-3.9748-14.267-2.5434-1.7784-6.3181-1.2005-8.6663-0.11286-4.9665 2.3004-4.3907 7.2695-7.7347 8.2204-4.6195 1.3136-13.024-6.0916-13.852-14.569-0.67539-6.9152 3.7798-13.631 5.5469-13.276 1.7521 0.35229 5.9469-5.003 8.2118-4.9204 1.5468 0.05641 7.8667-2.6905 9.5668-2.4758 1.8567 0.23458 7.9785 3.4292 8.2336 2.6994 1.7728-5.072 1.2517-6.4793 2.756-7.9303 2.6654-2.5712 7.0257-0.78067 13.866 0.18057 14.074 1.9778 16.531-2.663 23.743 0.48255 3.6436 1.589 6.6923 5.8742 12.641 14.38 8.3193 11.895 12.479 17.842 12.506 24.779 0.0272 7.0744-3.3985 6.6253-4.9033 17.098-1.675 11.658 1.8839 16.989-2.0041 20.777-3.005 2.9273-9.1128 3.6222-12.322 1.053-5.4944-4.3986 1.696-15.012-4.3841-22.767-3.7322-4.76-11.238-6.8779-14.676-4.525-3.8877 2.6604-1.746 10.469-4.4799 11.21-2.3411 0.63413-5.7724-4.5881-6.3431-5.4566z" fill="#2f2e41"/>
<path d="m797.85 237.34c-1.1504 19.67-5.7197 25.88-7.3203 49.11-0.34961 5.1001-0.55957 11.02-0.55957 18.08 0 1.7998 0.01 3.54 0.01 5.2402 0 3.6196-0.0693 7.04-0.49023 10.51-0.31934 2.77-0.86914 5.5601-1.7793 8.5h-88.83c-0.01-0.02-0.01-0.04-0.0205-0.0601-0.51953-2.2598-0.84961-4.4199-1.0996-6.4898-0.0801-0.66016-0.15039-1.3101-0.20996-1.9502-0.0801-0.75-0.15039-1.4898-0.21973-2.2197-0.27051-2.9102-0.54004-5.6602-1.1807-8.29-0.85938-3.6304-2.4199-7.0503-5.6201-10.35-1.3096-1.3501-2.6191-2.3999-3.8994-3.3198-0.25-0.17041-0.49023-0.34033-0.74023-0.51025-3.54-2.4302-6.8896-4.1802-9.79-9.1401-0.0498-0.0698-0.0898-0.1499-0.12988-0.21973-0.5-0.87012-1.7998-3.1504-2.7402-6.1899-0.99023-3.1602-1.5898-7.1304-0.50977-11.19 2.5703-9.6201 12.09-10.58 19.87-20.3 0.83984-1.0498 1.6699-2.21 2.46-3.5 3.5195-5.7202 4.4697-10.76 5.5898-16.75 0.17969-0.97021 0.33984-1.9302 0.46973-2.8599 0.10059-0.7002 0.19043-1.3901 0.26074-2.0703 0.61914-5.71 0.31934-10.63-0.41016-15.03-2.3799-14.41-9.4004-23.33-4.4404-36.26 1.5606-4.0596 3.7705-7.1099 6-9.7197 4.7197-5.5303 9.5703-9.1201 8.7305-16.26-0.85059-7.2002-6.3106-8.1904-6.9199-14.48-0.31055-3.1797 0.72949-6.5298 2.6797-9.8198v-0.01c6.2402-10.59 21.82-20.34 31.72-20.03 1.8301 0.0503 3.4502 0.45996 4.7998 1.25 4.8906 2.8799 2.8506 9.1699 10.341 17.99 5.5693 6.5498 11.869 9.1699 14.26 10.41 9.4697 4.9404 17.17 19.51 22.399 38.14 0.04 0.14014 0.0801 0.27979 0.12012 0.43018 3.2305 11.67 5.5107 24.92 6.6406 38.36 0.47949 5.6899 0.75977 11.41 0.81934 17.07 0.0508 4.52-0.0498 8.4404-0.25977 11.93z" fill="#003c56"/>
<polygon points="706.31 320.28 707.84 316.32 710.38 309.77 714.64 298.77 731.33 304.73 729.52 309.77 728.38 312.93 725.74 320.28 722.68 328.78 703.01 328.78" fill="#ffb6b6"/>
<path d="m790.84 167.83c-0.0498 0.65039-0.12012 1.3701-0.19043 2.1504-0.7793 7.9399-2.6201 22.15-5.3096 38.36-1.4199 8.5498-3.0801 17.66-4.9502 26.71-4.0195 19.53-9.0195 38.76-14.67 51.4-1.0098 2.2803-2.0498 4.3403-3.1104 6.1602-0.80957 1.3901-1.6602 2.7598-2.5498 4.1099-2.8799 4.4302-6.1104 8.6304-9.46 12.55-0.12988 0.16992-0.28027 0.33008-0.42969 0.5-0.54004 0.63965-1.1006 1.27-1.6602 1.8999-2.7402 3.0898-5.54 5.9697-8.25 8.6099-3.2998 3.2202-6.4805 6.0703-9.3301 8.5h-31.94l-0.12988-0.0601-4.5996-2.04s1.3096-1.54 3.5-4.4497c0.4502-0.59033 0.92969-1.2402 1.4502-1.9502 0.63965-0.87012 1.3301-1.8301 2.0693-2.8701 1.54-2.1797 3.29-4.7398 5.1699-7.6396 3.6406-5.6104 7.79-12.51 11.98-20.5 0.48047-0.93018 0.96973-1.8701 1.46-2.8203 0.01-0.0298 0.0303-0.0601 0.04-0.0898 0.83008-1.6201 1.6504-3.29 2.4697-4.9902 6.9502-14.46 8.9404-26.46 9.5107-30.35 0.7998-5.5 1.9092-13.19 1.6094-21.65-0.2002-5.5796-1.0098-11.48-2.9394-17.34v-0.01c-0.40039-1.23-0.85059-2.46-1.3604-3.6802-0.91016-2.1899-1.9902-4.3501-3.2705-6.48-5.6494-9.3799-10.239-9.77-13.89-19.99-1.0801-3.0298-3.5303-9.8696-2.7803-17.09v-0.01c0.0908-0.89014 0.24023-1.79 0.44043-2.6904v-0.01c0.0498-0.25 0.12012-0.50977 0.19043-0.75977 0.56934-2.21 1.5098-4.4004 2.9394-6.4805 2.79-4.0396 6.5996-6.4399 10.01-7.8696l0.0107-0.0102c3.9394-1.6396 7.3398-1.9898 8-2.0498 14.609-1.2998 25.939 10.98 32.13 17.69 2.3896 2.5898 4.5801 4.7602 6.5801 6.5298 15.569 13.9 19.84 5.02 20.949 0.43018 0.16992-0.70996 0.26074-1.3198 0.31055-1.7202z" fill="#003c56"/>
<path d="m790.89 167.31c0 0.0498-0.01 0.21973-0.0498 0.5 0.0195-0.15039 0.0303-0.30029 0.04-0.44043 0-0.0298 0-0.0498 0.01-0.0596z" fill="#6c63ff"/>
<path d="m764.14 320.28h-69.945c1.065-1.2534 1.6664-1.9779 1.6664-1.9779l20.968-3.4632 43.203-7.1294s1.9707 5.0934 4.1081 12.571z" fill="#2f2e41"/>
<path d="m593.95 290.98c-9.1968 5.2309-13.952 14.216-10.623 20.069 3.33 5.8523 13.483 6.3548 22.683 1.1208 3.7034-2.0404 6.8644-4.938 9.2184-8.4504l38.687-22.656-11.019-17.928-36.969 24.238c-4.2235 0.22844-8.3308 1.4652-11.978 3.6069z" fill="#ffb6b6"/>
<path d="m724.93 124.84c-1.1561-0.45818-11.3-4.2997-20.561 0.77222-10.638 5.8263-12.281 19.126-12.858 23.791-1.3312 10.776 2.5907 13.191 3.4187 24.101 1.549 20.41 5.6334-2.8739-0.88939 6.4425-2.2578 3.2248-25.317 53.198-38.034 62.986-24.733 19.037-40.439 32.444-40.439 32.444l17.93 19.477s28.333-7.5494 53.376-23.81c25.688-16.68 38.532-25.02 48.469-41.335 0.85574-1.405 21.331-36.176 10.335-74.624-2.5082-8.77-7.1038-24.839-20.747-30.245z" fill="#003c56"/>
<path d="m817.52 221.94-1.6029 74.802c-0.15517 7.2411-6.0696 13.03-13.312 13.03h-137.6c-7.0715 0-12.91-5.5276-13.296-12.589l-4.0893-74.802c-0.41702-7.6281 5.656-14.042 13.296-14.042h143.29c7.4656 0 13.472 6.1368 13.312 13.601z" fill="#3f3d56"/>
</svg>
